# xmcd
#
# Track frame offsets:
#	150
#	19032
#	38264
#	56669
#	72925
#	90309
#	111309
#	125524
#	139941
#	152700
#	172305
#	192357
#	207753
#
# Disc length: 2978 seconds
#
# Revision: 2
# Processed by: cddbd v1.5.2PL0 Copyright (c) Steve Scherf et al.
# Submitted via: audiograbber 1.82.01
#
DISCID=b20ba00d
DTITLE=ΝΑτάσσα Μποφίλιου - ΕΚΑΤΟ ΜΙΚΡΕΣ ΑΝΑΣΕΣ
DYEAR=2004
DGENRE=Alternative
TTITLE0=Πλατεία Αμερικής
TTITLE1=Μικρές αγγελίες
TTITLE2=Εκατό μικρές ανάσες
TTITLE3=Πες ό,τι θες
TTITLE4=Γάτες
TTITLE5=Καζαμπλάνκα
TTITLE6=Συμπλέκτης
TTITLE7=Φορτηγό
TTITLE8=Μια βροχή
TTITLE9=Ασπιρίνη
TTITLE10=Κρύψου
TTITLE11=Σήματα καπνού
TTITLE12=Τα κομμένα φτερά
EXTD=
EXTT0=
EXTT1=
EXTT2=
EXTT3=
EXTT4=
EXTT5=
EXTT6=
EXTT7=
EXTT8=
EXTT9=
EXTT10=
EXTT11=
EXTT12=
PLAYORDER=
